<svg version="1.1" id="Layer_1" xmlns="http://www.w3.org/2000/svg" xmlns:xlink="http://www.w3.org/1999/xlink" x="0px" y="0px"
	 width="100%" viewBox="0 0 1486 1001" enable-background="new 0 0 1486 1001" xml:space="preserve">
<path fill="#39D9A4" opacity="1.000000" stroke="none" 
	d="
M1103.000000,1002.000000 
	C735.333313,1002.000000 368.166656,1002.000000 1.000000,1002.000000 
	C1.000000,668.333313 1.000000,334.666656 1.000000,1.000000 
	C496.333344,1.000000 991.666687,1.000000 1487.000000,1.000000 
	C1487.000000,334.666656 1487.000000,668.333313 1487.000000,1002.000000 
	C1359.166626,1002.000000 1231.333374,1002.000000 1103.000000,1002.000000 
M743.756897,301.593750 
	C738.710999,293.193573 733.611694,284.824951 728.628296,276.387817 
	C706.888428,239.581253 685.194275,202.747696 663.457703,165.939178 
	C655.424194,152.335419 647.516663,138.659439 636.577271,127.035492 
	C621.410889,110.920036 603.827881,98.338753 583.234802,90.134903 
	C557.836304,80.016663 531.529480,76.649300 504.445862,80.429222 
	C485.495697,83.073990 467.568512,88.972923 450.895599,98.532578 
	C434.264587,108.068192 419.164368,119.661118 408.084564,135.302322 
	C397.536682,150.192673 388.292206,166.033646 378.916077,181.720505 
	C363.641418,207.276093 348.713531,233.039108 333.662109,258.727966 
	C315.668091,289.439148 297.707397,320.169891 279.714539,350.881775 
	C267.018127,372.553284 254.267929,394.193329 241.585327,415.872894 
	C224.703568,444.730530 207.887604,473.626678 190.998886,502.480255 
	C178.227280,524.299988 165.362808,546.065369 152.581314,567.879272 
	C134.670578,598.447021 116.803703,629.040527 98.907806,659.617004 
	C89.329277,675.982605 79.099960,692.004700 70.280975,708.769165 
	C55.743076,736.405212 50.062981,765.794128 54.832401,797.062439 
	C60.537556,834.465515 78.285103,865.034119 106.946465,889.131897 
	C135.772034,913.367859 169.961731,923.885437 207.153778,923.902344 
	C564.464722,924.064697 921.775757,924.001160 1279.086792,923.963440 
	C1281.025146,923.963257 1282.963379,923.410889 1285.850342,923.055054 
	C1292.319092,922.728638 1298.825195,922.735962 1305.250488,922.019470 
	C1337.655518,918.405823 1365.368896,904.527283 1388.942871,882.407837 
	C1402.908325,869.304138 1413.508057,853.598328 1421.440918,836.125854 
	C1433.782227,808.943665 1436.768066,780.571289 1432.264648,751.259277 
	C1428.487183,726.671448 1416.663696,705.490234 1404.107178,684.567566 
	C1391.097656,662.890137 1378.405518,641.021851 1365.628174,619.205627 
	C1348.647949,590.213257 1331.737305,561.180237 1314.763672,532.184021 
	C1302.075317,510.507996 1289.314453,488.874390 1276.621948,467.200897 
	C1258.717773,436.628571 1240.863647,406.027069 1222.956177,375.456696 
	C1210.177124,353.641144 1197.316284,331.873505 1184.544678,310.053589 
	C1167.656128,281.199982 1150.827271,252.311646 1133.957642,223.446960 
	C1123.130737,204.921692 1112.133911,186.494095 1101.473755,167.873444 
	C1090.022095,147.869781 1077.723022,128.666336 1059.495361,113.867996 
	C1046.183838,103.060936 1031.842651,94.222282 1015.719177,88.425667 
	C990.517761,79.365334 964.686279,76.637520 938.148621,80.964188 
	C907.184998,86.012444 880.342896,99.249702 857.616211,120.874565 
	C843.820923,134.000977 834.132690,150.026154 824.685913,166.347260 
	C802.439270,204.782806 779.841492,243.015411 757.306335,281.283325 
	C753.187683,288.277374 748.692749,295.049805 743.756897,301.593750 
z"/>
<path fill="#76FCB2" opacity="1.000000" stroke="none" 
	d="
M1284.901733,923.116333 
	C1282.963379,923.410889 1281.025146,923.963257 1279.086792,923.963440 
	C921.775757,924.001160 564.464722,924.064697 207.153778,923.902344 
	C169.961731,923.885437 135.772034,913.367859 106.946465,889.131897 
	C78.285103,865.034119 60.537556,834.465515 54.832401,797.062439 
	C50.062981,765.794128 55.743076,736.405212 70.280975,708.769165 
	C79.099960,692.004700 89.329277,675.982605 98.907806,659.617004 
	C116.803703,629.040527 134.670578,598.447021 152.581314,567.879272 
	C165.362808,546.065369 178.227280,524.299988 190.998886,502.480255 
	C207.887604,473.626678 224.703568,444.730530 241.585327,415.872894 
	C254.267929,394.193329 267.018127,372.553284 279.714539,350.881775 
	C297.707397,320.169891 315.668091,289.439148 333.662109,258.727966 
	C348.713531,233.039108 363.641418,207.276093 378.916077,181.720505 
	C388.292206,166.033646 397.536682,150.192673 408.084564,135.302322 
	C419.164368,119.661118 434.264587,108.068192 450.895599,98.532578 
	C467.568512,88.972923 485.495697,83.073990 504.445862,80.429222 
	C531.529480,76.649300 557.836304,80.016663 583.234802,90.134903 
	C603.827881,98.338753 621.410889,110.920036 636.577271,127.035492 
	C647.516663,138.659439 655.424194,152.335419 663.457703,165.939178 
	C685.194275,202.747696 706.888428,239.581253 728.628296,276.387817 
	C733.611694,284.824951 738.710999,293.193573 743.997314,302.139404 
	C744.174255,303.446320 744.110840,304.207611 743.769287,305.166565 
	C740.025208,311.031219 736.472412,316.647156 733.108093,322.373871 
	C716.583313,350.502167 700.078735,378.642487 683.623901,406.811737 
	C663.055603,442.022644 642.520508,477.253021 622.014343,512.500183 
	C610.297058,532.640686 598.665710,552.831238 586.765869,573.245728 
	C586.167053,574.045593 585.768433,574.581726 585.433350,575.155029 
	C565.781311,608.776062 546.027344,642.338135 526.536316,676.052246 
	C517.877808,691.029053 508.800110,705.877625 501.612091,721.563110 
	C491.523712,743.577637 488.483459,767.203796 491.219757,791.275940 
	C492.243988,800.286621 495.023468,809.097839 497.035889,818.385132 
	C505.780426,848.331482 522.877502,872.094543 547.206665,891.262207 
	C571.120605,910.110474 598.106567,920.253784 628.504944,922.836975 
	C648.651428,922.895569 668.334167,922.908691 688.483582,922.942932 
	C703.309326,922.941406 717.668335,922.918701 732.492676,922.924622 
	C745.981323,922.926636 759.004761,922.900024 772.492432,922.907715 
	C778.638916,922.916687 784.321167,922.891357 790.468811,922.903687 
	C795.966614,922.911072 800.998901,922.880859 806.496765,922.885498 
	C829.984619,922.891846 853.006958,922.863403 876.494629,922.873901 
	C903.657043,922.901123 930.354126,922.889343 957.484863,922.916138 
	C959.955505,922.907532 961.992371,922.860413 964.493164,922.868408 
	C985.309814,922.894653 1005.662598,922.865845 1026.481079,922.884216 
	C1043.303101,922.899109 1059.659546,922.866760 1076.481445,922.881836 
	C1137.437866,922.950012 1197.928711,922.971558 1258.419678,922.983398 
	C1259.249390,922.983582 1260.078979,922.861755 1261.378906,922.863342 
	C1269.533325,922.992004 1277.217529,923.054138 1284.901733,923.116333 
z"/>
<path fill="#00B897" opacity="1.000000" stroke="none" 
	d="
M1285.375977,923.085693 
	C1277.217529,923.054138 1269.533325,922.992004 1261.019531,922.690308 
	C1253.740723,921.921753 1247.235962,921.761475 1240.851685,920.800842 
	C1210.339722,916.209473 1180.442505,909.556030 1152.399414,895.907104 
	C1135.257568,887.563904 1119.162598,877.779419 1104.283569,865.900818 
	C1101.060669,863.327881 1097.477905,861.205750 1093.964355,858.557373 
	C1089.764893,854.172852 1085.618530,850.149719 1081.568970,846.031433 
	C1074.705811,839.052002 1067.903564,832.012573 1060.981689,824.666626 
	C1051.968506,812.766113 1043.007324,801.229614 1034.148682,789.614746 
	C1029.719604,783.807617 1025.478027,777.857422 1021.046631,771.636963 
	C1011.995178,756.950439 1002.894836,742.691895 994.142944,728.222656 
	C984.278015,711.913147 974.726807,695.413879 964.955383,678.651611 
	C959.151001,668.354553 953.542114,658.336670 947.682434,648.467529 
	C939.615295,634.880432 931.358521,621.405823 923.118164,607.652710 
	C923.053284,607.422363 922.920898,606.961365 922.804199,606.758667 
	C922.501343,606.300354 922.280334,606.079651 921.933472,605.561768 
	C918.922241,600.473083 916.002075,595.716553 912.983032,590.628296 
	C909.281982,584.515747 905.679810,578.734985 902.002991,572.604126 
	C894.315735,559.125244 886.710449,545.992126 879.063782,532.883179 
	C878.756897,532.356995 878.058350,532.059326 877.484497,531.291626 
	C868.295288,515.280151 859.163757,499.632233 849.909180,483.659729 
	C848.299255,480.739075 846.845459,478.123444 845.320618,475.550018 
	C834.548401,457.370483 823.761597,439.199646 812.859131,420.702393 
	C805.012268,407.243805 797.316284,394.090637 789.551880,380.977997 
	C778.073792,361.593781 766.547180,342.238281 754.883179,322.570038 
	C751.165894,316.502625 747.606628,310.735748 744.047363,304.968903 
	C744.110840,304.207611 744.174255,303.446320 744.304626,302.304779 
	C748.692749,295.049805 753.187683,288.277374 757.306335,281.283325 
	C779.841492,243.015411 802.439270,204.782806 824.685913,166.347260 
	C834.132690,150.026154 843.820923,134.000977 857.616211,120.874565 
	C880.342896,99.249702 907.184998,86.012444 938.148621,80.964188 
	C964.686279,76.637520 990.517761,79.365334 1015.719177,88.425667 
	C1031.842651,94.222282 1046.183838,103.060936 1059.495361,113.867996 
	C1077.723022,128.666336 1090.022095,147.869781 1101.473755,167.873444 
	C1112.133911,186.494095 1123.130737,204.921692 1133.957642,223.446960 
	C1150.827271,252.311646 1167.656128,281.199982 1184.544678,310.053589 
	C1197.316284,331.873505 1210.177124,353.641144 1222.956177,375.456696 
	C1240.863647,406.027069 1258.717773,436.628571 1276.621948,467.200897 
	C1289.314453,488.874390 1302.075317,510.507996 1314.763672,532.184021 
	C1331.737305,561.180237 1348.647949,590.213257 1365.628174,619.205627 
	C1378.405518,641.021851 1391.097656,662.890137 1404.107178,684.567566 
	C1416.663696,705.490234 1428.487183,726.671448 1432.264648,751.259277 
	C1436.768066,780.571289 1433.782227,808.943665 1421.440918,836.125854 
	C1413.508057,853.598328 1402.908325,869.304138 1388.942871,882.407837 
	C1365.368896,904.527283 1337.655518,918.405823 1305.250488,922.019470 
	C1298.825195,922.735962 1292.319092,922.728638 1285.375977,923.085693 
z"/>
<path fill="#5FEC9D" opacity="1.000000" stroke="none" 
	d="
M755.041199,322.870575 
	C766.547180,342.238281 778.073792,361.593781 789.551880,380.977997 
	C797.316284,394.090637 805.012268,407.243805 812.708984,421.005798 
	C812.265259,422.354553 811.989929,423.219055 811.416016,423.776031 
	C805.700134,429.323547 806.984497,437.722626 803.103333,444.058289 
	C801.522888,446.638245 801.112366,449.920837 799.610962,452.566711 
	C797.587524,456.132507 794.593689,459.182983 792.817017,462.843323 
	C791.118835,466.341827 790.217102,470.288757 789.389099,474.129913 
	C788.601807,477.782623 789.080505,481.842285 787.725830,485.209381 
	C785.275574,491.300018 781.820984,496.981720 778.909790,502.895264 
	C778.197937,504.341064 777.540100,506.037323 777.591431,507.594238 
	C777.766785,512.911621 775.269409,516.907166 772.561096,521.273132 
	C768.320190,528.109741 765.186829,535.633728 761.597534,542.873047 
	C761.454224,543.162109 761.293457,543.583984 761.399597,543.834167 
	C763.271545,548.244812 759.999146,552.000305 759.798401,555.763733 
	C759.369080,563.808289 754.924622,570.078003 751.789673,576.455383 
	C745.383484,589.487549 745.361084,604.850769 736.271118,616.711548 
	C735.842407,617.270874 736.169373,618.356873 735.971924,619.154968 
	C735.044678,622.903442 734.162476,626.668274 733.061462,630.366943 
	C731.963501,634.055237 730.489014,637.633484 729.443115,641.334534 
	C728.827148,643.514526 728.881714,645.876770 728.356873,648.091248 
	C727.262451,652.708679 725.983582,657.282471 724.702271,662.173035 
	C719.153442,662.196838 718.520325,666.825012 717.156189,671.202820 
	C715.330627,677.061584 717.919861,684.732849 710.347229,688.373596 
	C709.824585,688.624878 709.416138,689.946899 709.569885,690.633301 
	C710.394043,694.314270 707.625244,695.825317 705.705139,698.099976 
	C703.910034,700.226562 701.574402,703.350098 701.964294,705.604614 
	C703.313416,713.405945 698.214661,719.325928 696.909180,726.298950 
	C696.025757,731.017639 693.065613,735.314148 691.361450,739.920471 
	C688.856506,746.690552 687.022278,753.729126 684.212341,760.360962 
	C680.537354,769.034485 676.160767,777.409546 672.169617,785.952026 
	C671.705933,786.944458 671.927979,788.237183 671.569397,789.302246 
	C669.739441,794.737305 668.320435,800.390442 665.787842,805.485168 
	C663.556824,809.973145 661.211731,813.969482 661.702209,819.380432 
	C661.953491,822.151550 660.236694,825.233215 658.983337,827.980042 
	C656.634949,833.126648 651.753113,838.215027 651.938782,843.177490 
	C652.263123,851.844971 648.820129,859.011780 644.400696,864.757690 
	C638.145142,872.890625 638.480957,882.461426 635.205383,891.127747 
	C633.047302,896.837524 632.553528,903.417236 629.451538,908.461853 
	C626.342224,913.518372 625.503845,917.701721 628.041138,922.791504 
	C598.106567,920.253784 571.120605,910.110474 547.350830,890.932251 
	C548.712280,887.047974 548.759705,882.488770 554.511658,883.250427 
	C554.934875,883.306458 556.326172,878.770142 556.619202,876.292175 
	C556.888000,874.019409 555.851318,871.589539 556.133179,869.321350 
	C557.292053,859.996643 558.535645,850.672180 560.160706,841.420166 
	C560.913757,837.132996 560.110046,831.761902 566.985413,830.598083 
	C568.799622,830.290955 570.393311,826.313843 571.307800,823.744263 
	C572.169373,821.323181 571.927795,818.525330 572.304199,815.912292 
	C573.007812,811.028625 573.423157,806.057190 574.677002,801.312195 
	C575.887390,796.731873 575.999756,791.419495 581.737305,789.027039 
	C583.734009,788.194519 585.868408,785.645630 586.318481,783.534912 
	C587.655334,777.265869 587.939331,770.779663 589.094727,764.462524 
	C590.469299,756.947083 590.648987,748.761475 599.663147,745.089844 
	C601.535095,744.327454 603.248047,741.315613 603.629089,739.098938 
	C604.799133,732.291992 605.205872,725.356995 606.110657,718.498413 
	C606.285645,717.172180 607.065125,715.557556 608.096741,714.783508 
	C610.872498,712.700562 614.110229,711.220398 616.820618,709.067810 
	C618.527954,707.711914 620.300598,705.768372 620.863525,703.757996 
	C623.220825,695.337952 621.137939,686.615906 622.402283,677.887695 
	C623.545471,669.995422 627.694824,667.328613 633.364685,665.201538 
	C637.627991,663.602051 638.569397,659.890381 637.385742,657.374329 
	C635.598694,653.575378 636.664551,650.987793 637.484192,647.403625 
	C639.125488,640.226685 639.330933,632.713318 640.015564,625.328247 
	C640.559570,619.460266 642.221924,614.580811 648.801392,612.913208 
	C649.976257,612.615417 651.560669,611.153931 651.714661,610.055725 
	C652.785156,602.421265 653.085510,594.656982 654.518005,587.102173 
	C655.634705,581.212585 655.643372,574.567627 662.193970,570.875366 
	C664.977295,569.306519 668.287109,566.927368 669.213745,564.190613 
	C670.875000,559.284058 671.154358,553.847290 671.566711,548.597229 
	C672.000977,543.067871 674.220947,540.807678 679.751282,540.231934 
	C681.145752,540.086792 683.373047,538.204407 683.462402,536.991089 
	C683.800720,532.396729 687.952881,527.718689 683.549927,523.070496 
	C683.321167,522.829041 683.883850,521.881470 684.013977,521.249390 
	C685.160950,515.678589 686.237976,510.092743 687.450073,504.536285 
	C688.227600,500.971985 688.088928,495.857910 690.344727,494.286682 
	C693.615601,492.008545 696.517151,490.959259 697.176331,486.187714 
	C698.060913,479.784882 700.376343,473.588409 701.867065,467.253815 
	C702.189819,465.882233 701.426880,464.291931 701.491516,462.816711 
	C701.865295,454.284027 703.008240,446.097198 710.843384,440.619141 
	C712.697449,439.322845 715.016418,437.506592 715.437012,435.564697 
	C716.758667,429.462585 717.424683,423.201874 718.070435,416.974213 
	C718.860352,409.356476 718.982788,401.679382 727.498108,397.651550 
	C729.364868,396.768555 731.103577,393.918945 731.430298,391.753052 
	C733.443176,378.410156 734.221497,364.830383 740.703796,352.524567 
	C741.846375,350.355438 742.409058,347.840302 742.993164,345.425354 
	C744.570618,338.904510 745.567139,332.236237 752.343201,328.398438 
	C753.814270,327.565277 754.171143,324.764923 755.041199,322.870575 
z"/>
<path fill="#67F2A3" opacity="1.000000" stroke="none" 
	d="
M754.883179,322.570038 
	C754.171143,324.764923 753.814270,327.565277 752.343201,328.398438 
	C745.567139,332.236237 744.570618,338.904510 742.993164,345.425354 
	C742.409058,347.840302 741.846375,350.355438 740.703796,352.524567 
	C734.221497,364.830383 733.443176,378.410156 731.430298,391.753052 
	C731.103577,393.918945 729.364868,396.768555 727.498108,397.651550 
	C718.982788,401.679382 718.860352,409.356476 718.070435,416.974213 
	C717.424683,423.201874 716.758667,429.462585 715.437012,435.564697 
	C715.016418,437.506592 712.697449,439.322845 710.843384,440.619141 
	C703.008240,446.097198 701.865295,454.284027 701.491516,462.816711 
	C701.426880,464.291931 702.189819,465.882233 701.867065,467.253815 
	C700.376343,473.588409 698.060913,479.784882 697.176331,486.187714 
	C696.517151,490.959259 693.615601,492.008545 690.344727,494.286682 
	C688.088928,495.857910 688.227600,500.971985 687.450073,504.536285 
	C686.237976,510.092743 685.160950,515.678589 684.013977,521.249390 
	C683.883850,521.881470 683.321167,522.829041 683.549927,523.070496 
	C687.952881,527.718689 683.800720,532.396729 683.462402,536.991089 
	C683.373047,538.204407 681.145752,540.086792 679.751282,540.231934 
	C674.220947,540.807678 672.000977,543.067871 671.566711,548.597229 
	C671.154358,553.847290 670.875000,559.284058 669.213745,564.190613 
	C668.287109,566.927368 664.977295,569.306519 662.193970,570.875366 
	C655.643372,574.567627 655.634705,581.212585 654.518005,587.102173 
	C653.085510,594.656982 652.785156,602.421265 651.714661,610.055725 
	C651.560669,611.153931 649.976257,612.615417 648.801392,612.913208 
	C642.221924,614.580811 640.559570,619.460266 640.015564,625.328247 
	C639.330933,632.713318 639.125488,640.226685 637.484192,647.403625 
	C636.664551,650.987793 635.598694,653.575378 637.385742,657.374329 
	C638.569397,659.890381 637.627991,663.602051 633.364685,665.201538 
	C627.694824,667.328613 623.545471,669.995422 622.402283,677.887695 
	C621.137939,686.615906 623.220825,695.337952 620.863525,703.757996 
	C620.300598,705.768372 618.527954,707.711914 616.820618,709.067810 
	C614.110229,711.220398 610.872498,712.700562 608.096741,714.783508 
	C607.065125,715.557556 606.285645,717.172180 606.110657,718.498413 
	C605.205872,725.356995 604.799133,732.291992 603.629089,739.098938 
	C603.248047,741.315613 601.535095,744.327454 599.663147,745.089844 
	C590.648987,748.761475 590.469299,756.947083 589.094727,764.462524 
	C587.939331,770.779663 587.655334,777.265869 586.318481,783.534912 
	C585.868408,785.645630 583.734009,788.194519 581.737305,789.027039 
	C575.999756,791.419495 575.887390,796.731873 574.677002,801.312195 
	C573.423157,806.057190 573.007812,811.028625 572.304199,815.912292 
	C571.927795,818.525330 572.169373,821.323181 571.307800,823.744263 
	C570.393311,826.313843 568.799622,830.290955 566.985413,830.598083 
	C560.110046,831.761902 560.913757,837.132996 560.160706,841.420166 
	C558.535645,850.672180 557.292053,859.996643 556.133179,869.321350 
	C555.851318,871.589539 556.888000,874.019409 556.619202,876.292175 
	C556.326172,878.770142 554.934875,883.306458 554.511658,883.250427 
	C548.759705,882.488770 548.712280,887.047974 547.151489,890.665039 
	C522.877502,872.094543 505.780426,848.331482 497.311401,818.171753 
	C498.295685,816.109985 499.191315,814.703613 499.756744,813.175049 
	C510.261475,784.776611 520.693054,756.351074 531.207886,727.956360 
	C549.695251,678.032166 568.241821,628.129944 586.680481,578.187744 
	C587.255066,576.631592 586.911316,574.736389 586.995667,572.999268 
	C598.665710,552.831238 610.297058,532.640686 622.014343,512.500183 
	C642.520508,477.253021 663.055603,442.022644 683.623901,406.811737 
	C700.078735,378.642487 716.583313,350.502167 733.108093,322.373871 
	C736.472412,316.647156 740.025208,311.031219 743.769287,305.166565 
	C747.606628,310.735748 751.165894,316.502625 754.883179,322.570038 
z"/>
<path fill="#55E698" opacity="1.000000" stroke="none" 
	d="
M628.504944,922.836975 
	C625.503845,917.701721 626.342224,913.518372 629.451538,908.461853 
	C632.553528,903.417236 633.047302,896.837524 635.205383,891.127747 
	C638.480957,882.461426 638.145142,872.890625 644.400696,864.757690 
	C648.820129,859.011780 652.263123,851.844971 651.938782,843.177490 
	C651.753113,838.215027 656.634949,833.126648 658.983337,827.980042 
	C660.236694,825.233215 661.953491,822.151550 661.702209,819.380432 
	C661.211731,813.969482 663.556824,809.973145 665.787842,805.485168 
	C668.320435,800.390442 669.739441,794.737305 671.569397,789.302246 
	C671.927979,788.237183 671.705933,786.944458 672.169617,785.952026 
	C676.160767,777.409546 680.537354,769.034485 684.212341,760.360962 
	C687.022278,753.729126 688.856506,746.690552 691.361450,739.920471 
	C693.065613,735.314148 696.025757,731.017639 696.909180,726.298950 
	C698.214661,719.325928 703.313416,713.405945 701.964294,705.604614 
	C701.574402,703.350098 703.910034,700.226562 705.705139,698.099976 
	C707.625244,695.825317 710.394043,694.314270 709.569885,690.633301 
	C709.416138,689.946899 709.824585,688.624878 710.347229,688.373596 
	C717.919861,684.732849 715.330627,677.061584 717.156189,671.202820 
	C718.520325,666.825012 719.153442,662.196838 724.702271,662.173035 
	C725.983582,657.282471 727.262451,652.708679 728.356873,648.091248 
	C728.881714,645.876770 728.827148,643.514526 729.443115,641.334534 
	C730.489014,637.633484 731.963501,634.055237 733.061462,630.366943 
	C734.162476,626.668274 735.044678,622.903442 735.971924,619.154968 
	C736.169373,618.356873 735.842407,617.270874 736.271118,616.711548 
	C745.361084,604.850769 745.383484,589.487549 751.789673,576.455383 
	C754.924622,570.078003 759.369080,563.808289 759.798401,555.763733 
	C759.999146,552.000305 763.271545,548.244812 761.399597,543.834167 
	C761.293457,543.583984 761.454224,543.162109 761.597534,542.873047 
	C765.186829,535.633728 768.320190,528.109741 772.561096,521.273132 
	C775.269409,516.907166 777.766785,512.911621 777.591431,507.594238 
	C777.540100,506.037323 778.197937,504.341064 778.909790,502.895264 
	C781.820984,496.981720 785.275574,491.300018 787.725830,485.209381 
	C789.080505,481.842285 788.601807,477.782623 789.389099,474.129913 
	C790.217102,470.288757 791.118835,466.341827 792.817017,462.843323 
	C794.593689,459.182983 797.587524,456.132507 799.610962,452.566711 
	C801.112366,449.920837 801.522888,446.638245 803.103333,444.058289 
	C806.984497,437.722626 805.700134,429.323547 811.416016,423.776031 
	C811.989929,423.219055 812.265259,422.354553 812.829346,421.329407 
	C823.761597,439.199646 834.548401,457.370483 845.320618,475.550018 
	C846.845459,478.123444 848.299255,480.739075 849.670898,483.918274 
	C849.026062,485.531342 848.382874,486.519165 847.983093,487.597260 
	C835.658020,520.839905 823.348511,554.088257 811.054016,587.342224 
	C798.990417,619.971741 786.956665,652.612305 774.889893,685.240662 
	C761.033203,722.708801 747.143555,760.164795 733.288940,797.633667 
	C721.108521,830.574890 708.897156,863.504822 696.831848,896.488159 
	C693.642334,905.207458 690.941833,914.105713 688.016846,922.921753 
	C668.334167,922.908691 648.651428,922.895569 628.504944,922.836975 
z"/>
<path fill="#3BD38D" opacity="1.000000" stroke="none" 
	d="
M923.182983,607.882996 
	C931.358521,621.405823 939.615295,634.880432 947.682434,648.467529 
	C953.542114,658.336670 959.151001,668.354553 964.658569,678.836792 
	C962.114258,682.867065 959.624329,686.273804 957.506531,689.898010 
	C956.043945,692.401123 954.978271,695.160034 953.941772,697.883179 
	C951.613281,704.001099 949.942627,710.440125 946.970947,716.216919 
	C945.058167,719.935425 940.698975,721.913757 939.830872,727.009277 
	C939.367920,729.726440 938.375366,731.867859 939.366638,734.824341 
	C939.973389,736.634155 938.792480,739.123230 938.168945,741.234863 
	C937.809753,742.451294 936.641418,743.455811 936.385498,744.671143 
	C934.690491,752.722473 932.940918,760.688049 927.282898,767.176270 
	C926.205261,768.412109 925.098145,770.657166 925.505310,771.971863 
	C927.183472,777.390015 924.230591,781.747131 922.138489,785.847351 
	C918.289795,793.390320 912.367493,799.771362 912.592590,809.211975 
	C912.683350,813.018616 907.714722,816.498840 911.001404,821.061523 
	C911.098755,821.196838 910.769775,821.649597 910.625366,821.947327 
	C908.141541,827.068176 905.443237,832.098389 903.234558,837.335205 
	C901.353027,841.796509 900.068115,846.507263 898.438110,851.078735 
	C898.115967,851.982239 897.498596,852.813232 896.890503,853.576538 
	C893.530273,857.794006 893.371582,863.987244 896.516174,868.120422 
	C896.855591,868.566528 896.945496,869.202515 897.275818,870.082581 
	C896.376953,869.945740 895.844299,870.013184 895.500244,869.789917 
	C890.740173,866.700745 890.303894,867.085876 888.876038,872.434631 
	C887.311707,878.294556 885.309021,884.069092 883.040344,889.696594 
	C881.836975,892.681580 881.152100,894.947937 883.284607,897.950317 
	C886.350281,902.266235 883.073181,908.449524 877.921509,909.183472 
	C876.726196,909.353760 874.871704,910.435791 874.707947,911.347473 
	C874.009705,915.234253 872.534668,919.379272 876.029297,922.835022 
	C853.006958,922.863403 829.984619,922.891846 806.576599,922.540161 
	C820.400635,883.770935 834.636292,845.391418 848.814209,806.990479 
	C870.888489,747.202148 892.897766,687.389709 915.011475,627.615967 
	C917.479858,620.943848 920.447144,614.456177 923.182983,607.882996 
z"/>
<path fill="#4FE195" opacity="1.000000" stroke="none" 
	d="
M688.483521,922.942993 
	C690.941833,914.105713 693.642334,905.207458 696.831848,896.488159 
	C708.897156,863.504822 721.108521,830.574890 733.288940,797.633667 
	C747.143555,760.164795 761.033203,722.708801 774.889893,685.240662 
	C786.956665,652.612305 798.990417,619.971741 811.054016,587.342224 
	C823.348511,554.088257 835.658020,520.839905 847.983093,487.597260 
	C848.382874,486.519165 849.026062,485.531342 849.794067,484.242859 
	C859.163757,499.632233 868.295288,515.280151 877.179321,531.554077 
	C873.556763,536.357971 870.080261,540.459778 866.860107,544.753906 
	C865.692993,546.310242 864.835083,548.251038 864.365906,550.147461 
	C863.276428,554.551086 862.126770,558.996826 861.684937,563.492676 
	C860.443237,576.128906 855.819519,587.686035 851.257935,599.350830 
	C847.067871,610.065308 843.629395,621.071777 839.684509,631.885620 
	C839.000732,633.760071 837.766968,636.368591 836.237000,636.835876 
	C829.992554,638.742615 828.868042,643.928711 829.327271,648.723816 
	C829.957581,655.306824 827.823364,661.049561 826.238708,667.044373 
	C825.914917,668.269165 825.429688,670.171875 824.603394,670.429443 
	C817.845337,672.535950 817.692139,679.056763 814.808594,683.889099 
	C810.446960,691.198425 816.272095,702.054688 806.341064,707.138977 
	C803.635803,714.439026 800.945740,721.744812 798.221558,729.037842 
	C794.227295,739.731262 790.055237,750.361389 786.252502,761.122253 
	C783.556824,768.750305 780.073181,776.209717 780.920532,784.738586 
	C781.340637,788.966980 780.398010,792.755310 778.139893,796.913086 
	C774.867615,802.938232 775.142334,810.927124 767.654785,814.506653 
	C767.749512,819.465088 764.174377,822.767639 762.284180,826.849243 
	C755.942871,840.542297 751.249634,855.001221 749.526917,869.900452 
	C748.464661,879.087341 744.675964,886.909363 741.852173,895.257507 
	C738.719604,904.518433 735.314087,913.687134 732.027344,922.895935 
	C717.668335,922.918701 703.309326,922.941406 688.483521,922.942993 
z"/>
<path fill="#2CC886" opacity="1.000000" stroke="none" 
	d="
M876.494629,922.873901 
	C872.534668,919.379272 874.009705,915.234253 874.707947,911.347473 
	C874.871704,910.435791 876.726196,909.353760 877.921509,909.183472 
	C883.073181,908.449524 886.350281,902.266235 883.284607,897.950317 
	C881.152100,894.947937 881.836975,892.681580 883.040344,889.696594 
	C885.309021,884.069092 887.311707,878.294556 888.876038,872.434631 
	C890.303894,867.085876 890.740173,866.700745 895.500244,869.789917 
	C895.844299,870.013184 896.376953,869.945740 897.275818,870.082581 
	C896.945496,869.202515 896.855591,868.566528 896.516174,868.120422 
	C893.371582,863.987244 893.530273,857.794006 896.890503,853.576538 
	C897.498596,852.813232 898.115967,851.982239 898.438110,851.078735 
	C900.068115,846.507263 901.353027,841.796509 903.234558,837.335205 
	C905.443237,832.098389 908.141541,827.068176 910.625366,821.947327 
	C910.769775,821.649597 911.098755,821.196838 911.001404,821.061523 
	C907.714722,816.498840 912.683350,813.018616 912.592590,809.211975 
	C912.367493,799.771362 918.289795,793.390320 922.138489,785.847351 
	C924.230591,781.747131 927.183472,777.390015 925.505310,771.971863 
	C925.098145,770.657166 926.205261,768.412109 927.282898,767.176270 
	C932.940918,760.688049 934.690491,752.722473 936.385498,744.671143 
	C936.641418,743.455811 937.809753,742.451294 938.168945,741.234863 
	C938.792480,739.123230 939.973389,736.634155 939.366638,734.824341 
	C938.375366,731.867859 939.367920,729.726440 939.830872,727.009277 
	C940.698975,721.913757 945.058167,719.935425 946.970947,716.216919 
	C949.942627,710.440125 951.613281,704.001099 953.941772,697.883179 
	C954.978271,695.160034 956.043945,692.401123 957.506531,689.898010 
	C959.624329,686.273804 962.114258,682.867065 964.742310,679.182373 
	C974.726807,695.413879 984.278015,711.913147 994.142944,728.222656 
	C1002.894836,742.691895 1011.995178,756.950439 1020.846436,771.865112 
	C1020.751221,773.843140 1020.751221,775.258179 1020.751221,776.673157 
	C1018.820374,778.009705 1016.178162,780.239929 1016.534546,781.773254 
	C1017.719849,786.872742 1015.213074,789.578369 1011.691040,792.150208 
	C1008.044800,794.812683 1007.485413,797.943787 1009.911499,801.426453 
	C1010.407654,802.138733 1010.744873,802.961792 1011.669617,804.700928 
	C1005.266479,801.622925 1006.458496,805.889404 1006.361755,809.053345 
	C1002.061890,808.497559 1001.431396,810.760864 1001.294495,814.351440 
	C1001.158691,817.912720 1000.897095,822.336609 998.808472,824.760315 
	C995.344849,828.779724 993.326538,832.870911 992.829590,837.861328 
	C987.088928,836.487061 983.683838,840.600037 984.032043,848.151184 
	C978.037903,850.678284 976.554626,854.296021 979.912476,858.332153 
	C979.155334,860.629333 978.428650,862.576111 977.820374,864.559143 
	C977.166260,866.691833 976.623230,868.858521 975.715088,870.925293 
	C974.077576,869.675354 972.756775,868.510498 971.202515,867.139832 
	C970.679321,867.907593 969.792236,868.637878 969.673584,869.476868 
	C968.953003,874.573608 968.539978,879.716492 967.719910,884.794861 
	C967.485291,886.247437 966.438232,888.538452 965.427368,888.737732 
	C959.214600,889.962097 957.504272,895.189087 955.669983,898.366882 
	C955.865234,902.150024 956.886536,905.070007 955.932983,907.028625 
	C954.036682,910.923706 955.233643,913.880981 956.770813,917.296021 
	C957.482849,918.878113 956.995056,921.000305 957.051147,922.877625 
	C930.354126,922.889343 903.657043,922.901123 876.494629,922.873901 
z"/>
<path fill="#47DC93" opacity="1.000000" stroke="none" 
	d="
M732.492676,922.924622 
	C735.314087,913.687134 738.719604,904.518433 741.852173,895.257507 
	C744.675964,886.909363 748.464661,879.087341 749.526917,869.900452 
	C751.249634,855.001221 755.942871,840.542297 762.284180,826.849243 
	C764.174377,822.767639 767.749512,819.465088 767.654785,814.506653 
	C775.142334,810.927124 774.867615,802.938232 778.139893,796.913086 
	C780.398010,792.755310 781.340637,788.966980 780.920532,784.738586 
	C780.073181,776.209717 783.556824,768.750305 786.252502,761.122253 
	C790.055237,750.361389 794.227295,739.731262 798.221558,729.037842 
	C800.945740,721.744812 803.635803,714.439026 806.341064,707.138977 
	C816.272095,702.054688 810.446960,691.198425 814.808594,683.889099 
	C817.692139,679.056763 817.845337,672.535950 824.603394,670.429443 
	C825.429688,670.171875 825.914917,668.269165 826.238708,667.044373 
	C827.823364,661.049561 829.957581,655.306824 829.327271,648.723816 
	C828.868042,643.928711 829.992554,638.742615 836.237000,636.835876 
	C837.766968,636.368591 839.000732,633.760071 839.684509,631.885620 
	C843.629395,621.071777 847.067871,610.065308 851.257935,599.350830 
	C855.819519,587.686035 860.443237,576.128906 861.684937,563.492676 
	C862.126770,558.996826 863.276428,554.551086 864.365906,550.147461 
	C864.835083,548.251038 865.692993,546.310242 866.860107,544.753906 
	C870.080261,540.459778 873.556763,536.357971 877.237061,531.917603 
	C878.058350,532.059326 878.756897,532.356995 879.063782,532.883179 
	C886.710449,545.992126 894.315735,559.125244 901.795166,572.913574 
	C898.033752,583.358093 894.435181,593.154236 890.769897,602.925354 
	C885.648499,616.578308 880.393005,630.181458 875.348450,643.862610 
	C869.103455,660.799561 863.087280,677.820923 856.837769,694.756165 
	C851.789734,708.435669 846.457031,722.010010 841.404968,735.688049 
	C835.092957,752.776978 829.003662,769.948181 822.696411,787.038940 
	C817.710815,800.548401 812.463623,813.961243 807.473206,827.468933 
	C801.049927,844.855103 794.843262,862.321411 788.400269,879.700195 
	C783.050293,894.131042 777.493408,908.485229 772.028137,922.873352 
	C759.004761,922.900024 745.981323,922.926636 732.492676,922.924622 
z"/>
<path fill="#1CBD80" opacity="1.000000" stroke="none" 
	d="
M976.031677,871.010315 
	C976.623230,868.858521 977.166260,866.691833 977.820374,864.559143 
	C978.428650,862.576111 979.155334,860.629333 980.083191,858.471130 
	C984.013245,858.275696 987.689941,858.275696 991.338867,858.275696 
	C992.641113,854.449951 992.991211,850.638855 994.989075,848.151001 
	C998.754761,843.461853 997.361084,840.652466 992.995117,837.997742 
	C993.326538,832.870911 995.344849,828.779724 998.808472,824.760315 
	C1000.897095,822.336609 1001.158691,817.912720 1001.294495,814.351440 
	C1001.431396,810.760864 1002.061890,808.497559 1006.361755,809.053345 
	C1006.458496,805.889404 1005.266479,801.622925 1011.669617,804.700928 
	C1010.744873,802.961792 1010.407654,802.138733 1009.911499,801.426453 
	C1007.485413,797.943787 1008.044800,794.812683 1011.691040,792.150208 
	C1015.213074,789.578369 1017.719849,786.872742 1016.534546,781.773254 
	C1016.178162,780.239929 1018.820374,778.009705 1020.751221,776.673157 
	C1020.751221,775.258179 1020.751221,773.843140 1020.951416,772.200073 
	C1025.478027,777.857422 1029.719604,783.807617 1034.148682,789.614746 
	C1043.007324,801.229614 1051.968506,812.766113 1060.583008,824.675110 
	C1058.368530,825.786255 1055.150391,826.162903 1054.778198,827.397400 
	C1053.276123,832.379700 1052.663208,837.628723 1051.696655,842.774597 
	C1051.427734,844.205872 1051.320801,845.738647 1050.713379,847.023254 
	C1047.864380,853.047913 1044.238647,858.785583 1042.083252,865.037109 
	C1039.469727,872.617249 1037.619629,880.539185 1036.322876,888.457886 
	C1035.766602,891.854675 1037.064697,895.276978 1031.684814,894.789551 
	C1031.085938,894.735291 1030.102295,895.950928 1029.735229,896.773132 
	C1026.019287,905.095825 1024.604858,913.771057 1026.015381,922.837036 
	C1005.662598,922.865845 985.309814,922.894653 964.569641,922.541382 
	C965.456848,917.697693 966.731506,913.236084 968.018250,908.731995 
	C969.428223,909.204529 970.722839,909.638428 972.812988,910.338867 
	C972.389771,907.250732 972.436096,904.735291 971.662292,902.504333 
	C969.720337,896.905334 969.595398,896.914795 975.461182,896.424988 
	C974.188660,891.533386 972.734192,886.483704 978.707275,883.434998 
	C979.006104,883.282410 979.217896,882.487549 979.111694,882.086731 
	C978.130005,878.382629 977.069336,874.699524 976.031677,871.010315 
z"/>
<path fill="#42D88F" opacity="1.000000" stroke="none" 
	d="
M772.492432,922.907715 
	C777.493408,908.485229 783.050293,894.131042 788.400269,879.700195 
	C794.843262,862.321411 801.049927,844.855103 807.473206,827.468933 
	C812.463623,813.961243 817.710815,800.548401 822.696411,787.038940 
	C829.003662,769.948181 835.092957,752.776978 841.404968,735.688049 
	C846.457031,722.010010 851.789734,708.435669 856.837769,694.756165 
	C863.087280,677.820923 869.103455,660.799561 875.348450,643.862610 
	C880.393005,630.181458 885.648499,616.578308 890.769897,602.925354 
	C894.435181,593.154236 898.033752,583.358093 901.869873,573.263672 
	C905.679810,578.734985 909.281982,584.515747 912.694519,590.835815 
	C911.448181,593.412903 910.161499,595.365417 909.369812,597.501465 
	C899.647827,623.731812 890.026306,649.999390 880.323120,676.236755 
	C867.443542,711.063049 854.504883,745.867554 841.610107,780.688232 
	C827.269714,819.412720 812.898743,858.126038 798.661499,896.888428 
	C795.515991,905.452332 792.876099,914.201965 790.003418,922.866089 
	C784.321167,922.891357 778.638916,922.916687 772.492432,922.907715 
z"/>
<path fill="#41D78F" opacity="1.000000" stroke="none" 
	d="
M790.468872,922.903687 
	C792.876099,914.201965 795.515991,905.452332 798.661499,896.888428 
	C812.898743,858.126038 827.269714,819.412720 841.610107,780.688232 
	C854.504883,745.867554 867.443542,711.063049 880.323120,676.236755 
	C890.026306,649.999390 899.647827,623.731812 909.369812,597.501465 
	C910.161499,595.365417 911.448181,593.412903 912.793335,591.167603 
	C916.002075,595.716553 918.922241,600.473083 922.062012,605.758057 
	C922.469177,606.535767 922.682251,606.760681 922.920898,606.961365 
	C922.920898,606.961365 923.053284,607.422363 923.118164,607.652710 
	C920.447144,614.456177 917.479858,620.943848 915.011475,627.615967 
	C892.897766,687.389709 870.888489,747.202148 848.814209,806.990479 
	C834.636292,845.391418 820.400635,883.770935 806.111084,922.505371 
	C800.998901,922.880859 795.966614,922.911072 790.468872,922.903687 
z"/>
<path fill="#6DF6A8" opacity="1.000000" stroke="none" 
	d="
M586.765869,573.245728 
	C586.911316,574.736389 587.255066,576.631592 586.680481,578.187744 
	C568.241821,628.129944 549.695251,678.032166 531.207886,727.956360 
	C520.693054,756.351074 510.261475,784.776611 499.756744,813.175049 
	C499.191315,814.703613 498.295685,816.109985 497.278198,817.786621 
	C495.023468,809.097839 492.243988,800.286621 491.219757,791.275940 
	C488.483459,767.203796 491.523712,743.577637 501.612091,721.563110 
	C508.800110,705.877625 517.877808,691.029053 526.536316,676.052246 
	C546.027344,642.338135 565.781311,608.776062 585.433350,575.155029 
	C585.768433,574.581726 586.167053,574.045593 586.765869,573.245728 
z"/>
<path fill="#05AD78" opacity="1.000000" stroke="none" 
	d="
M1094.060913,858.875977 
	C1097.477905,861.205750 1101.060669,863.327881 1104.283569,865.900818 
	C1119.162598,877.779419 1135.257568,887.563904 1152.399414,895.907104 
	C1180.442505,909.556030 1210.339722,916.209473 1240.851685,920.800842 
	C1247.235962,921.761475 1253.740723,921.921753 1260.549316,922.623901 
	C1260.078979,922.861755 1259.249390,922.983582 1258.419678,922.983398 
	C1197.928711,922.971558 1137.437866,922.950012 1076.399658,922.543762 
	C1075.809326,921.997498 1075.708252,921.827698 1075.731689,921.677185 
	C1077.036133,913.291382 1078.302979,904.898804 1079.752563,896.537903 
	C1079.873291,895.841248 1081.230957,895.354431 1082.020996,894.779663 
	C1083.090454,894.001587 1084.767700,893.451843 1085.142090,892.424377 
	C1087.418945,886.175964 1090.958130,879.830811 1091.003296,873.495972 
	C1091.041870,868.086548 1091.739990,863.492615 1094.060913,858.875977 
z"/>
<path fill="#11B57C" opacity="1.000000" stroke="none" 
	d="
M1093.964355,858.557373 
	C1091.739990,863.492615 1091.041870,868.086548 1091.003296,873.495972 
	C1090.958130,879.830811 1087.418945,886.175964 1085.142090,892.424377 
	C1084.767700,893.451843 1083.090454,894.001587 1082.020996,894.779663 
	C1081.230957,895.354431 1079.873291,895.841248 1079.752563,896.537903 
	C1078.302979,904.898804 1077.036133,913.291382 1075.731689,921.677185 
	C1075.708252,921.827698 1075.809326,921.997498 1075.934082,922.496338 
	C1059.659546,922.866760 1043.303101,922.899109 1026.481079,922.884216 
	C1024.604858,913.771057 1026.019287,905.095825 1029.735229,896.773132 
	C1030.102295,895.950928 1031.085938,894.735291 1031.684814,894.789551 
	C1037.064697,895.276978 1035.766602,891.854675 1036.322876,888.457886 
	C1037.619629,880.539185 1039.469727,872.617249 1042.083252,865.037109 
	C1044.238647,858.785583 1047.864380,853.047913 1050.713379,847.023254 
	C1051.320801,845.738647 1051.427734,844.205872 1051.696655,842.774597 
	C1052.663208,837.628723 1053.276123,832.379700 1054.778198,827.397400 
	C1055.150391,826.162903 1058.368530,825.786255 1060.677124,825.006775 
	C1067.903564,832.012573 1074.705811,839.052002 1081.568970,846.031433 
	C1085.618530,850.149719 1089.764893,854.172852 1093.964355,858.557373 
z"/>
<path fill="#24C283" opacity="1.000000" stroke="none" 
	d="
M975.715088,870.925293 
	C977.069336,874.699524 978.130005,878.382629 979.111694,882.086731 
	C979.217896,882.487549 979.006104,883.282410 978.707275,883.434998 
	C972.734192,886.483704 974.188660,891.533386 975.461182,896.424988 
	C969.595398,896.914795 969.720337,896.905334 971.662292,902.504333 
	C972.436096,904.735291 972.389771,907.250732 972.812988,910.338867 
	C970.722839,909.638428 969.428223,909.204529 968.018250,908.731995 
	C966.731506,913.236084 965.456848,917.697693 964.105774,922.486267 
	C961.992371,922.860413 959.955505,922.907532 957.484863,922.916138 
	C956.995056,921.000305 957.482849,918.878113 956.770813,917.296021 
	C955.233643,913.880981 954.036682,910.923706 955.932983,907.028625 
	C956.886536,905.070007 955.865234,902.150024 955.669983,898.366882 
	C957.504272,895.189087 959.214600,889.962097 965.427368,888.737732 
	C966.438232,888.538452 967.485291,886.247437 967.719910,884.794861 
	C968.539978,879.716492 968.953003,874.573608 969.673584,869.476868 
	C969.792236,868.637878 970.679321,867.907593 971.202515,867.139832 
	C972.756775,868.510498 974.077576,869.675354 975.715088,870.925293 
z"/>
<path fill="#3BD38D" opacity="1.000000" stroke="none" 
	d="
M922.804199,606.758667 
	C922.682251,606.760681 922.469177,606.535767 922.153015,606.090271 
	C922.280334,606.079651 922.501343,606.300354 922.804199,606.758667 
z"/>
<path fill="#24C283" opacity="1.000000" stroke="none" 
	d="
M992.829590,837.861328 
	C997.361084,840.652466 998.754761,843.461853 994.989075,848.151001 
	C992.991211,850.638855 992.641113,854.449951 991.338867,858.275696 
	C987.689941,858.275696 984.013245,858.275696 980.165833,858.136719 
	C976.554626,854.296021 978.037903,850.678284 984.032043,848.151184 
	C983.683838,840.600037 987.088928,836.487061 992.829590,837.861328 
z"/>
</svg>